<?xml version="1.0" encoding="utf-8"?>
<!-- Generator: Adobe Illustrator 21.0.0, SVG Export Plug-In . SVG Version: 6.00 Build 0)  -->
<svg version="1.1" id="圖層_1" xmlns="http://www.w3.org/2000/svg" xmlns:xlink="http://www.w3.org/1999/xlink" x="0px" y="0px"
	 viewBox="0 0 382 334" style="enable-background:new 0 0 382 334;" xml:space="preserve">
<style type="text/css">
	.st0{fill:#FFFFFF;}
</style>
<g>
	<path class="st0" d="M207.7,296.1c0,14.9-12.1,27-27,27c-14.8,0-26.9-12.1-26.9-27c0-14.9,12.1-26.9,26.9-26.9
		C195.7,269.2,207.7,281.2,207.7,296.1L207.7,296.1z M207.7,296.1"/>
	<path class="st0" d="M315.8,296.1c0,14.9-12.1,27-27,27c-14.9,0-26.9-12.1-26.9-27c0-14.9,12-26.9,26.9-26.9
		C303.7,269.2,315.8,281.2,315.8,296.1L315.8,296.1z M315.8,296.1"/>
	<path class="st0" d="M359.9,65.5c-5.9-6-17.5-5.8-17.5-5.8H104.9L97.2,27C94.3,15.3,83.8,7,71.7,7H8.8L21,33.1L59.4,33
		c8.7-0.1,16.2,6.1,18,14.6l35,168.4c4.1,19.8,21.5,33.9,41.7,33.9h154c21.4,0,22.7-23.5,22.7-23.5H160.9c-8.8,0-19,1.2-25.5-24.1
		c-2.4-9.4-8-37.8-8-37.8l212.6-0.2c9.4-0.4,17.3-7.4,18.4-17l7.2-66.2C366.3,75.1,365.8,71.4,359.9,65.5L359.9,65.5z M334.8,137.8
		H121.6l-10.3-48.1h228.7L334.8,137.8z M334.8,137.8"/>
</g>
</svg>
