<?xml version="1.0" encoding="utf-8"?>
<!-- Generator: Adobe Illustrator 21.0.0, SVG Export Plug-In . SVG Version: 6.00 Build 0)  -->
<svg version="1.1" id="Layer_1" xmlns="http://www.w3.org/2000/svg" xmlns:xlink="http://www.w3.org/1999/xlink" x="0px" y="0px"
	 viewBox="0 0 100 100" style="enable-background:new 0 0 100 100;" xml:space="preserve">
<style type="text/css">
	.st0{clip-path:url(#SVGID_2_);}
	.st1{fill:#FFFFFF;}
</style>
<g>
	<defs>
		<path id="SVGID_1_" d="M85,0H15C6.7,0,0,6.7,0,15v70c0,8.3,6.7,15,15,15h70c8.3,0,15-6.7,15-15V15C100,6.7,93.3,0,85,0z"/>
	</defs>
	<clipPath id="SVGID_2_">
		<use xlink:href="#SVGID_1_"  style="overflow:visible;"/>
	</clipPath>
	<g class="st0">
		<path class="st1" d="M36.8,45.6c2,0.9,2.9,0.7,2.9,0.7s-1.1-1.3-1.5-2.6c0,0,5.5,4.5,12.1,4.9c0.1,0,0.1,0,0.2,0l0,0
			c0.1,0,0.2,0,0.4,0c0.1,0,0.2,0,0.3,0c0.1,0,0.2,0,0.3,0c0.1,0,0.2,0,0.4,0l0,0c0.1,0,0.1,0,0.2,0c6.6-0.4,12.1-4.9,12.1-4.9
			c-0.4,1.3-1.5,2.6-1.5,2.6s0.9,0.2,2.9-0.7c2-0.9,2.7-1.8,2.7-2.7c0-0.9-2.2-1.8-6-3.5c-3.3-1.4-9.4-1.8-11-1.8l0,0
			c0,0-0.1,0-0.2,0c-0.1,0-0.2,0-0.2,0l0,0c-1.6,0.1-7.7,0.4-11,1.8v0c-3.9,1.6-6.1,2.6-6.1,3.5C34.1,43.8,34.8,44.7,36.8,45.6z"/>
		<path class="st1" d="M43.7,36.8c2.7,0,4.9-3.2,4.9-7.2c0-4-2.2-7.2-4.9-7.2c-2.7,0-4.9,3.2-4.9,7.2C38.9,33.6,41,36.8,43.7,36.8z
			 M45.4,26.7c1.1,0,1.9,1.3,1.9,2.9s-0.9,2.9-1.9,2.9c-1.1,0-1.9-1.3-1.9-2.9C43.4,28,44.3,26.7,45.4,26.7z"/>
		<ellipse class="st1" cx="45.9" cy="29" rx="0.8" ry="1.2"/>
		<path class="st1" d="M57.3,36.8c2.7,0,4.9-3.2,4.9-7.2c0-4-2.2-7.2-4.9-7.2c-2.7,0-4.9,3.2-4.9,7.2C52.4,33.6,54.6,36.8,57.3,36.8
			z M54.1,28.6c0.2-0.6,0.5-1.1,1-1.4c0.3-0.2,0.6-0.4,1-0.4c0.4,0,0.7,0.1,1,0.4c0.3,0.2,0.5,0.5,0.7,0.9c0.4,0.7,0.6,1.6,0.6,2.5
			h-1.5c0-0.5-0.1-0.9-0.2-1.2c-0.1-0.3-0.3-0.6-0.4-0.6c-0.1-0.1-0.1-0.1-0.2-0.1c-0.1,0-0.1,0-0.2,0.1c-0.1,0.1-0.2,0.2-0.3,0.4v0
			c-0.2,0.3-0.3,0.9-0.3,1.5h-1.5C53.7,29.8,53.9,29.1,54.1,28.6z"/>
		<path class="st1" d="M32.5,68.3c0.2,0.2,0.4,0.4,0.7,0.6c0.4,0.3,1,0.5,1.7,0.7c1.2,0.3,2.6,0.6,3.7,0.6c0.5,0,1,0,1.4-0.1
			c0.4-0.1,0.7-0.2,1-0.4c0.2-0.1,0.3-0.2,0.4-0.4c0.1-0.2,0.2-0.5,0.2-0.8c0.2-2.9,0.3-7.3,0.3-8.4c-0.4-0.1-0.8-0.2-1.2-0.3
			c-3-0.7-5.8-1.7-8.2-2.7c0,0,0,0.1,0,0.1c-0.1,0.6-0.2,1.4-0.3,2.2c-0.2,1.8-0.4,3.9-0.5,5.3c0,0.4,0,0.7,0,1
			c0,0.6,0.1,1.1,0.2,1.5C32,67.6,32.2,68,32.5,68.3z"/>
		<path class="st1" d="M0,0v100.4h100.4V0H0z M46.2,86.9c-4,2.7-12.3,3.7-19.8,0.5c-7.4-3.1-3.1-7.3-3.1-7.3
			c-0.9-0.2-0.5-1.5,0.5-2.4c0.7-0.6,1.7-1.2,2.5-1.7c0.6,0.7,1.2,1.4,1.8,1.9v0c4.8,4.2,9.2,6.8,14.5,7.9c1.6,0.3,2.9,0.5,4.1,0.6
			C46.6,86.6,46.4,86.8,46.2,86.9z M74.3,87.5c-7.5,3.1-15.8,2.2-19.8-0.5c-0.2-0.1-0.4-0.3-0.5-0.4c1.1-0.1,2.5-0.3,4.1-0.6
			c5.3-1.1,9.7-3.7,14.5-7.9c0.7-0.6,1.3-1.2,1.8-1.9c0.8,0.5,1.9,1.1,2.5,1.7c1,0.9,1.5,2.2,0.6,2.4C77.5,80.1,81.7,84.4,74.3,87.5
			z M85.7,67.2c-0.6,5.3-1.3,5.5-3.1,4.4c-2-1.2-4.4-4.9-4.4-4.9s-2.5,6.8-6.6,10.4c-4.8,4.2-9.2,6.8-14.5,7.9
			c-3.5,0.7-5.8,0.8-6.9,0.8c-1.2,0-3.5-0.1-6.9-0.8c-5.3-1.1-9.7-3.7-14.5-7.9c-4.1-3.6-6.6-10.4-6.6-10.4s-2.4,3.7-4.4,4.9
			c-1.8,1.1-2.6,0.9-3.1-4.4C14.2,63,17.2,55.7,20,51.6c0.8-1.2,1.7-2.3,2.6-3.2c-0.2-0.5-0.4-0.9-0.6-1.3c-0.4-0.9-0.5-1.6-0.7-2.1
			c-0.1-0.3-0.1-0.6-0.1-0.8c0-0.5,0.1-0.9,0.2-1.3c0.1-0.4,0.3-0.7,0.4-1c0.2-0.3,0.3-0.5,0.4-0.6c0-0.2,0.1-0.7,0.3-1.6
			c0.1-0.6,0.3-1.1,0.6-1.5c0.3-0.4,0.6-0.7,0.9-0.9c0.6-0.4,1.1-0.5,1.2-0.6l0,0c0-1.3,0.1-3,0.4-5.7c0.6-4.8,5-11.9,10.1-15.4
			c5.5-3.7,11.7-4.8,14.5-4.7c3.3,0,9.6,1.4,14.5,4.7c5.1,3.5,9.2,10.7,10.1,15.4c0.4,1.9,0.6,3.2,0.7,4.3l1,1
			c1.1,1.1,1.9,2.2,2.5,3.5c0.6,1.3,0.9,2.7,0.9,4.3c0,0.9-0.1,1.8-0.3,2.8c-0.1,0.6-0.4,1.3-0.8,1.9c0,0.1-0.1,0.2-0.1,0.2
			c0.6,0.7,1.3,1.5,1.9,2.4l0,0C83.2,55.7,86.2,63,85.7,67.2z"/>
		<path class="st1" d="M72.6,55C72.6,55,72.6,55,72.6,55c-3.8,2.6-8.6,4.9-13.6,5.8c-2.1,0.4-4.2,0.5-6.3,0.5c-3,0-6.1-0.3-9-0.9
			c0,0.6,0,1.5-0.1,2.5c-0.1,1.8-0.1,3.9-0.2,5.6c0,0.4-0.1,0.7-0.2,1c-0.1,0.3-0.2,0.6-0.4,0.9c-0.4,0.5-0.9,0.9-1.4,1.1
			c-0.4,0.2-0.7,0.3-1.1,0.4c-0.5,0.1-1.1,0.2-1.6,0.2c-1.4,0-3-0.3-4.3-0.7c-0.9-0.3-1.7-0.6-2.4-1.1c-0.6-0.4-1.1-1-1.5-1.6
			c-0.2-0.4-0.4-0.8-0.5-1.2c-0.1-0.6-0.2-1.2-0.2-1.8c0-0.3,0-0.7,0-1.1c0-0.4,0.1-0.9,0.1-1.4c0.1-1,0.2-2.1,0.3-3.2
			c0.2-1.7,0.4-3.2,0.4-3.7c0,0,0,0,0,0c-1-0.5-2-1.1-2.8-1.7c-0.2,0.6-0.5,1.2-0.6,1.8C26.6,59,25.5,67.8,31.7,76
			c5.2,6.9,15.4,8.2,18.5,8.4c3.1-0.2,13.3-1.5,18.5-8.4c6.2-8.2,5.1-17,4.4-19.6C73,55.9,72.8,55.5,72.6,55z"/>
		<path class="st1" d="M76.2,38.9c-0.1,0.4-0.3,0.8-0.6,1.3c-0.8,1.7-2.3,3.8-4.8,5.9c-1.6,1.4-3.7,2.6-6.4,3.7
			c-3.5,1.4-8,2.3-13.7,2.4c-0.3,0-0.6,0-0.9,0c-6.2,0-10.9-1.1-14.5-2.7c-3.6-1.6-6-3.7-7.7-5.7c-1.1-1.3-1.8-2.6-2.3-3.6
			c-0.2-0.5-0.4-0.9-0.5-1.2c-0.1,0.1-0.2,0.2-0.3,0.3c-0.1,0.2-0.3,0.4-0.3,0.8C24,41.9,24,41.9,24,41.9l-0.1,0.3l-0.2,0.2l0,0
			c0,0,0,0,0,0c0,0-0.1,0.1-0.2,0.2h0c-0.1,0.2-0.3,0.5-0.4,0.8c-0.1,0.2-0.1,0.5-0.1,0.7c0,0.2,0,0.3,0,0.5c0.1,0.4,0.3,1,0.6,1.8
			c0.3,0.8,0.8,1.7,1.4,2.6c1.3,1.9,3.3,4,6.5,5.6c2.6,1.3,6,2.5,9.6,3.4c3.7,0.9,7.6,1.4,11.5,1.4c2,0,4-0.2,6-0.5
			c3.1-0.5,6.1-1.6,8.8-3.1c2.7-1.4,5.1-3.1,6.9-4.8c1.2-1.1,2.1-2.2,2.7-3.1c0.3-0.5,0.5-1,0.6-1.4c0.2-0.8,0.3-1.6,0.3-2.4
			c0-1.3-0.3-2.5-0.8-3.5C77,40.1,76.6,39.5,76.2,38.9z"/>
	</g>
</g>
</svg>
