<?xml version="1.0" encoding="utf-8"?>
<!-- Generator: Adobe Illustrator 16.0.0, SVG Export Plug-In . SVG Version: 6.00 Build 0)  -->
<!DOCTYPE svg PUBLIC "-//W3C//DTD SVG 1.1//EN" "http://www.w3.org/Graphics/SVG/1.1/DTD/svg11.dtd">
<svg version="1.1" id="Layer_1" xmlns="http://www.w3.org/2000/svg" xmlns:xlink="http://www.w3.org/1999/xlink" x="0px" y="0px"
	 width="100px" height="100px" viewBox="0 0 100 100" enable-background="new 0 0 100 100" xml:space="preserve">
<g>
	<path fill="#FFFFFF" d="M86.525,0H13.475C6.033,0,0,6.033,0,13.475v73.051C0,93.968,6.033,100,13.475,100h36.028l0.062-35.734
		H40.28c-1.207,0-2.186-0.976-2.19-2.182l-0.045-11.52c-0.004-1.212,0.979-2.199,2.191-2.199h9.268v-11.13
		c0-12.916,7.889-19.949,19.41-19.949h9.455c1.209,0,2.19,0.98,2.19,2.19v9.712c0,1.21-0.98,2.191-2.189,2.191l-5.803,0.003
		c-6.266,0-7.479,2.977-7.479,7.347v9.636h13.769c1.312,0,2.331,1.146,2.176,2.447l-1.365,11.52
		c-0.131,1.103-1.066,1.933-2.176,1.933H65.15l-0.062,35.735h21.438c7.441,0,13.475-6.033,13.475-13.476V13.475
		C100,6.033,93.967,0,86.525,0L86.525,0L86.525,0z"/>
</g>
</svg>
