<?xml version="1.0" encoding="utf-8"?>
<!-- Generator: Adobe Illustrator 21.0.0, SVG Export Plug-In . SVG Version: 6.00 Build 0)  -->
<svg version="1.1" id="Layer_1" xmlns="http://www.w3.org/2000/svg" xmlns:xlink="http://www.w3.org/1999/xlink" x="0px" y="0px"
	 viewBox="0 0 100 100" style="enable-background:new 0 0 100 100;" xml:space="preserve">
<style type="text/css">
	.st0{fill:#FFFFFF;}
</style>
<g>
	<path class="st0" d="M56,53.4c-1.7,0-3.1,1.4-3,3.1c0.1,1.6,1.4,2.9,3,2.9l0,0c1.6,0,3-1.3,3-2.9C59.1,54.9,57.7,53.4,56,53.4z"/>
	<path class="st0" d="M49.3,37.5c2.1,0,3.6-1.6,3.6-3.7c0-2-1.7-3.6-3.7-3.6h0c-2,0-3.7,1.7-3.6,3.7C45.6,36,47.2,37.5,49.3,37.5z"
		/>
	<path class="st0" d="M26.2,30.3c-2-0.1-3.7,1.5-3.8,3.5c-0.1,2,1.5,3.7,3.5,3.7c2,0.1,3.7-1.5,3.8-3.5v0
		C29.9,32.1,28.2,30.3,26.2,30.3z"/>
	<path class="st0" d="M85,0H15C6.7,0,0,6.7,0,15v70c0,8.3,6.7,15,15,15h70c8.3,0,15-6.7,15-15V15C100,6.7,93.3,0,85,0z M29.6,65.5
		c-1-0.1-2.2,0-3,0.5c-2.8,1.6-5.5,3.4-8.7,5.4c0.6-2.6,1-5,1.6-7.2c0.5-1.6,0.3-2.5-1.2-3.6C8.6,53.8,4.5,43.5,7.5,33
		c2.8-9.7,9.8-15.7,19.2-18.7c12.9-4.2,27.4,0.1,35.2,10.3c2.8,3.7,4.6,7.8,5,12.7l0,0l0,0l0,0c-8.1,0.4-15.1,2.9-20.8,8.4
		c-5.8,5.6-8.4,12.4-7.7,20.9C35.3,66.2,32.5,65.8,29.6,65.5z M86.4,78.8c-2.5,2.2-3.4,4-1.8,6.9c0.3,0.5,0.3,1.2,0.5,1.9
		c0,0,0,0,0,0h0c0,0,0,0,0,0c-2.6-1.1-4.9-2.8-7.4-3.1c-2.5-0.3-5.1,1.2-7.7,1.4c-7.9,0.8-15-1.4-20.9-6.8
		C38,68.8,39.6,53,52.4,44.6c11.4-7.5,28.2-5,36.3,5.4C95.8,59.1,95,71.2,86.4,78.8z"/>
	<path class="st0" d="M74.7,53.4c-1.6,0-2.9,1.3-3,2.9c-0.1,1.7,1.3,3.1,2.9,3.1c1.6,0,2.9-1.2,3-2.9C77.7,54.9,76.4,53.4,74.7,53.4
		z"/>
</g>
</svg>
