<?xml version="1.0" encoding="utf-8"?>
<!-- Generator: Adobe Illustrator 16.0.0, SVG Export Plug-In . SVG Version: 6.00 Build 0)  -->
<!DOCTYPE svg PUBLIC "-//W3C//DTD SVG 1.1//EN" "http://www.w3.org/Graphics/SVG/1.1/DTD/svg11.dtd">
<svg version="1.1" id="Layer_1" xmlns="http://www.w3.org/2000/svg" xmlns:xlink="http://www.w3.org/1999/xlink" x="0px" y="0px"
	 width="100px" height="100px" viewBox="0 0 100 100" enable-background="new 0 0 100 100" xml:space="preserve">
<g>
	<g transform="translate(-539.18 -568.86)">
		<path fill="#FFFFFF" d="M570.628,659.495c37.737,0,58.375-31.264,58.375-58.375c0-0.888-0.018-1.772-0.058-2.652
			c4.006-2.896,7.487-6.51,10.234-10.624c-3.677,1.634-7.633,2.734-11.782,3.23c4.235-2.54,7.487-6.558,9.021-11.348
			c-3.964,2.35-8.354,4.058-13.027,4.98c-3.744-3.988-9.074-6.482-14.977-6.482c-11.33,0-20.518,9.188-20.518,20.514
			c0,1.61,0.18,3.176,0.532,4.678c-17.052-0.858-32.172-9.022-42.292-21.436c-1.762,3.032-2.777,6.554-2.777,10.312
			c0,7.118,3.622,13.402,9.13,17.078c-3.366-0.104-6.528-1.028-9.292-2.566c-0.003,0.086-0.003,0.17-0.003,0.262
			c0,9.936,7.072,18.232,16.46,20.112c-1.724,0.471-3.538,0.723-5.41,0.723c-1.319,0-2.605-0.131-3.855-0.371
			c2.611,8.152,10.186,14.084,19.166,14.25c-7.022,5.504-15.868,8.783-25.482,8.783c-1.654,0-3.288-0.096-4.894-0.285
			C548.26,656.098,559.041,659.495,570.628,659.495"/>
	</g>
</g>
</svg>
