<?xml version="1.0" encoding="utf-8"?>
<!-- Generator: Adobe Illustrator 21.0.0, SVG Export Plug-In . SVG Version: 6.00 Build 0)  -->
<svg version="1.1" id="Layer_1" xmlns="http://www.w3.org/2000/svg" xmlns:xlink="http://www.w3.org/1999/xlink" x="0px" y="0px"
	 viewBox="0 0 100 100" style="enable-background:new 0 0 100 100;" xml:space="preserve">
<style type="text/css">
	.st0{fill:#FFFFFF;}
</style>
<g>
	<path class="st0" d="M39.3,61.3c-1.9-0.8-4.4,0-5.6,1.9c-1.2,1.9-0.6,4.1,1.3,5c1.9,0.9,4.5,0,5.8-1.9
		C41.9,64.4,41.2,62.2,39.3,61.3z"/>
	<path class="st0" d="M41,46.4c-12.5,1.2-22,8.9-21.2,17.1c0.8,8.2,11.6,13.9,24.1,12.6c12.5-1.2,22-8.9,21.2-17.1
		C64.3,50.8,53.5,45.1,41,46.4z M52,65.8c-2.6,5.8-9.9,8.8-16.1,6.8c-6-1.9-8.6-7.9-5.9-13.2c2.6-5.2,9.3-8.2,15.3-6.7
		C51.4,54.3,54.5,60.1,52,65.8z"/>
	<path class="st0" d="M85,0H15C6.7,0,0,6.7,0,15v70c0,8.3,6.7,15,15,15h70c8.3,0,15-6.7,15-15V15C100,6.7,93.3,0,85,0z M43.9,80.6
		c-15.7,0-31.7-7.6-31.7-20.1c0-6.5,4.1-14.1,11.3-21.2c9.5-9.5,20.6-13.8,24.8-9.7c1.8,1.8,2,5,0.8,8.8c-0.6,1.9,1.8,0.9,1.8,0.9
		c7.7-3.2,14.4-3.4,16.9,0.1c1.3,1.9,1.2,4.5,0,7.5c-0.6,1.4,0.2,1.6,1.2,1.9c4.3,1.3,9.2,4.6,9.1,10.3
		C78.1,68.7,64.5,80.6,43.9,80.6z M71.3,36.2c-1.2-1.3-2.9-1.8-4.5-1.5c-1.3,0.3-2.7-0.6-2.9-1.9c-0.3-1.3,0.6-2.7,1.9-3
		c3.3-0.7,6.8,0.3,9.3,3c2.4,2.7,3.1,6.3,2,9.5c-0.4,1.3-1.8,2-3.1,1.6c-1.3-0.4-2-1.8-1.6-3.1C72.8,39.3,72.5,37.5,71.3,36.2z
		 M86.8,45.5L86.8,45.5c-0.5,1.5-2.1,2.4-3.6,1.9c-1.5-0.5-2.4-2.1-1.9-3.6c1.5-4.7,0.6-10-3-13.9s-8.7-5.4-13.5-4.4
		c-1.6,0.3-3.1-0.7-3.4-2.2c-0.3-1.6,0.7-3.1,2.2-3.4c6.8-1.4,14.1,0.7,19,6.2C87.6,31.5,88.9,39,86.8,45.5z"/>
	<path class="st0" d="M44.1,59.4c-0.7-0.3-1.7,0.1-2.1,0.8c-0.4,0.7-0.2,1.6,0.6,1.9c0.8,0.3,1.7,0,2.2-0.8
		C45.1,60.5,44.8,59.6,44.1,59.4z"/>
</g>
</svg>
