<?xml version="1.0" encoding="utf-8"?>
<!-- Generator: Adobe Illustrator 16.0.0, SVG Export Plug-In . SVG Version: 6.00 Build 0)  -->
<!DOCTYPE svg PUBLIC "-//W3C//DTD SVG 1.1//EN" "http://www.w3.org/Graphics/SVG/1.1/DTD/svg11.dtd">
<svg version="1.1" id="Layer_1" xmlns="http://www.w3.org/2000/svg" xmlns:xlink="http://www.w3.org/1999/xlink" x="0px" y="0px"
	 width="100px" height="100px" viewBox="0 0 100 100" enable-background="new 0 0 100 100" xml:space="preserve">
<g>
	<path fill="#FFFFFF" d="M88.206,0.012H12.146C5.593,0.012,0,6.167,0,12.699v76.11C0,95.34,5.593,100,12.146,100h76.061
		C94.759,100,100,95.34,100,88.809v-76.11C100,6.167,94.759,0.012,88.206,0.012L88.206,0.012z M85.854,14.295
		c1.896,0,3.432,1.538,3.432,3.433V28.72c0,1.895-1.536,3.433-3.432,3.433H74.86c-1.896,0-3.433-1.538-3.433-3.433V17.728
		c0-1.896,1.537-3.433,3.433-3.433H85.854z M50.292,31.729c10.599,0,19.189,8.572,19.189,19.142c0,10.571-8.59,19.142-19.189,19.142
		c-10.597,0-19.188-8.571-19.188-19.142C31.103,40.301,39.695,31.729,50.292,31.729L50.292,31.729z M89.286,86.256
		c0,1.535-1.632,3.032-3.172,3.032H14.472c-1.54,0-3.759-1.497-3.759-3.032V42.864h10.305c-0.702,3.572-1.08,5.237-1.08,8.006
		c0,16.697,13.615,30.277,30.354,30.277c16.74,0,30.355-13.584,30.355-30.28c0-2.766-0.379-4.431-1.076-8.003h9.716V86.256z
		 M89.286,86.256"/>
</g>
</svg>
