<?xml version="1.0" encoding="utf-8"?>
<!-- Generator: Adobe Illustrator 21.0.0, SVG Export Plug-In . SVG Version: 6.00 Build 0)  -->
<svg version="1.1" id="Layer_1" xmlns="http://www.w3.org/2000/svg" xmlns:xlink="http://www.w3.org/1999/xlink" x="0px" y="0px"
	 viewBox="0 0 100 100" style="enable-background:new 0 0 100 100;" xml:space="preserve">
<style type="text/css">
	.st0{fill:#FFFFFF;}
</style>
<path class="st0" d="M85.1,0h-70c-8.3,0-15,6.7-15,15v70c0,8.3,6.7,15,15,15h70c8.3,0,15-6.7,15-15V15C100.1,6.7,93.4,0,85.1,0z
	 M78.3,74.9H58.7c0,0-17.5-25.5-18-26.2c-0.5-0.7-0.6,0-0.6,0c0.7,3.4,1.3,4,1.3,10v16.2H21.8V25h0h19.6c0,0,17.8,27,18.4,27.7
	c0.5,0.7,0.6,0,0.6,0c-0.8-4.2-1.7-6-1.7-12.7V25h19.6V74.9z"/>
</svg>
