<?xml version="1.0" encoding="utf-8"?>
<!-- Generator: Adobe Illustrator 16.0.0, SVG Export Plug-In . SVG Version: 6.00 Build 0)  -->
<!DOCTYPE svg PUBLIC "-//W3C//DTD SVG 1.1//EN" "http://www.w3.org/Graphics/SVG/1.1/DTD/svg11.dtd">
<svg version="1.1" id="Layer_1" xmlns="http://www.w3.org/2000/svg" xmlns:xlink="http://www.w3.org/1999/xlink" x="0px" y="0px"
	 width="100px" height="100px" viewBox="0 0 100 100" enable-background="new 0 0 100 100" xml:space="preserve">
<g>
	<polyline fill="#E0E0E0" points="63.368,50.697 63.365,50.695 66.692,48.972 63.368,50.697 	"/>
	<g>
		<path fill="#FFFFFF" d="M39.677,62.972l-0.005-28.098l27.021,14.098L39.677,62.972L39.677,62.972z M99.002,30.006
			c0,0-0.978-6.891-3.975-9.926c-3.804-3.983-8.065-4.002-10.021-4.236c-13.993-1.012-34.985-1.012-34.985-1.012h-0.043
			c0,0-20.991,0-34.985,1.012c-1.955,0.233-6.216,0.253-10.02,4.236C1.976,23.115,1,30.006,1,30.006s-1,8.093-1,16.185v7.586
			c0,8.093,1,16.185,1,16.185s0.976,6.892,3.974,9.926c3.804,3.983,8.8,3.857,11.026,4.275c8,0.767,34,1.004,34,1.004
			s21.013-0.031,35.006-1.043c1.955-0.233,6.217-0.253,10.021-4.236c2.997-3.034,3.975-9.926,3.975-9.926S100,61.87,100,53.777
			v-7.586C100,38.099,99.002,30.006,99.002,30.006L99.002,30.006z"/>
	</g>
</g>
</svg>
